<svg width="493" height="180" viewBox="0 0 493 180" xmlns="http://www.w3.org/2000/svg" style="isolation:isolate" fill-opacity="0.5">
<rect style="mix-blend-mode:multiply" fill="#ffb6f8" x="16" y="17" width="55.296" height="144"/>
<path style="mix-blend-mode:multiply" fill="#e975c8" d="M71.296 127.592C85.9614 127.592 100.026 121.766 110.396 111.396C120.766 101.026 126.592 86.9614 126.592 72.296C126.592 57.6306 120.766 43.5658 110.396 33.1958C100.026 22.8258 85.9614 17 71.296 17L71.296 72.296L71.296 127.592Z"/>
<path style="mix-blend-mode:multiply" fill="#e975c8" d="M16 72.296C16 83.6982 19.5248 94.8216 26.0917 104.143C32.6586 113.464 41.9464 120.527 52.6832 124.365C63.4201 128.203 75.0808 128.628 86.0686 125.582C97.0563 122.536 106.834 116.168 114.062 107.349L71.296 72.296L16 72.296Z"/>
<rect style="mix-blend-mode:multiply" fill="#7edf87" x="143.872" y="17" width="55.296" height="144"/>
<rect style="mix-blend-mode:multiply" fill="#ffd850" x="202.624" y="105.704" width="16.128" height="55.296"/>
<circle style="mix-blend-mode:multiply" fill="#b6e5ff" cx="297.664" cy="89" r="72"/>
<path style="mix-blend-mode:multiply" fill="#b6e5ff" d="M297.664 17C281.006 17 264.864 22.7758 251.988 33.3432C239.111 43.9107 230.297 58.616 227.047 74.9535C223.798 91.291 226.313 108.25 234.165 122.941C242.018 137.631 254.721 149.145 270.111 155.519C285.5 161.894 302.624 162.735 318.564 157.9C334.505 153.064 348.275 142.851 357.53 129.001C366.784 115.151 370.95 98.5201 369.317 81.9428C367.684 65.3654 360.354 49.867 348.576 38.0883L297.664 89V17Z"/>
<path style="mix-blend-mode:multiply" fill="#b6e5ff" d="M297.664 17C286.731 17 275.942 19.4897 266.114 24.2804C256.287 29.071 247.68 36.0367 240.945 44.6491C234.211 53.2616 229.526 63.2945 227.246 73.9871C224.967 84.6796 225.152 95.7509 227.788 106.361C230.424 116.971 235.442 126.842 242.461 135.224C249.48 143.606 258.316 150.28 268.298 154.739C278.28 159.198 289.147 161.326 300.073 160.96C311 160.594 321.7 157.744 331.362 152.628L297.664 89V17Z"/>
<rect style="mix-blend-mode:multiply" fill="#d8a6ff" x="382.336" y="17" width="89.856" height="55.296"/>
<rect style="mix-blend-mode:multiply" fill="#a9b6fc" x="399.616" y="75.7521" width="55.296" height="85.248"/>
</svg>
