<svg class="plot" fill="currentColor" font-family="system-ui, sans-serif" font-size="10" text-anchor="middle" width="640" height="220" viewBox="0 0 640 220" xmlns="http://www.w3.org/2000/svg" xmlns:xlink="http://www.w3.org/1999/xlink">
  <style>
    :where(.plot) {
      --plot-background: white;
      display: block;
      height: auto;
      height: intrinsic;
      max-width: 100%;
    }

    :where(.plot text),
    :where(.plot tspan) {
      white-space: pre;
    }
  </style>
  <g aria-label="x-axis tick" aria-hidden="true" fill="none" stroke="currentColor" transform="translate(0.5,0)">
    <path transform="translate(83.273,190)" d="M0,0L0,6"></path>
    <path transform="translate(192.364,190)" d="M0,0L0,6"></path>
    <path transform="translate(301.455,190)" d="M0,0L0,6"></path>
    <path transform="translate(410.545,190)" d="M0,0L0,6"></path>
    <path transform="translate(519.636,190)" d="M0,0L0,6"></path>
  </g>
  <g aria-label="x-axis tick label" font-variant="tabular-nums" transform="translate(0.5,9.5)">
    <text y="0.71em" transform="translate(83.273,190)">35</text>
    <text y="0.71em" transform="translate(192.364,190)">40</text>
    <text y="0.71em" transform="translate(301.455,190)">45</text>
    <text y="0.71em" transform="translate(410.545,190)">50</text>
    <text y="0.71em" transform="translate(519.636,190)">55</text>
  </g>
  <g aria-label="x-axis label" text-anchor="end" transform="translate(17.5,27.5)">
    <text transform="translate(620,190)">culmen_length_mm →</text>
  </g>
  <g aria-label="dot" fill="none" stroke="currentColor" stroke-width="1.5" transform="translate(0.5,0.5)">
    <path transform="translate(172.727,184.5)" d="M0,-7.528L1.69,-2.326L7.16,-2.326L2.735,0.889L4.425,6.09L0,2.875L-4.425,6.09L-2.735,0.889L-7.16,-2.326L-1.69,-2.326Z"></path>
    <path transform="translate(181.455,179.618)" d="M-3.988,-3.988h7.976v7.976h-7.976Z"></path>
    <path transform="translate(198.909,184.5)" d="M-3.988,-3.988h7.976v7.976h-7.976Z"></path>
    <path transform="translate(120.364,184.5)" d="M-3.988,-3.988h7.976v7.976h-7.976Z"></path>
    <path transform="translate(177.091,170.62)" d="M0,-7.528L1.69,-2.326L7.16,-2.326L2.735,0.889L4.425,6.09L0,2.875L-4.425,6.09L-2.735,0.889L-7.16,-2.326L-1.69,-2.326Z"></path>
    <path transform="translate(168.364,175.502)" d="M-3.988,-3.988h7.976v7.976h-7.976Z"></path>
    <path transform="translate(174.909,160.861)" d="M0,-7.528L1.69,-2.326L7.16,-2.326L2.735,0.889L4.425,6.09L0,2.875L-4.425,6.09L-2.735,0.889L-7.16,-2.326L-1.69,-2.326Z"></path>
    <path transform="translate(63.636,184.5)" d="M0,-7.528L1.69,-2.326L7.16,-2.326L2.735,0.889L4.425,6.09L0,2.875L-4.425,6.09L-2.735,0.889L-7.16,-2.326L-1.69,-2.326Z"></path>
    <path transform="translate(236,184.5)" d="M0,-7.528L1.69,-2.326L7.16,-2.326L2.735,0.889L4.425,6.09L0,2.875L-4.425,6.09L-2.735,0.889L-7.16,-2.326L-1.69,-2.326Z"></path>
    <path transform="translate(144.364,184.5)" d="M0,-7.528L1.69,-2.326L7.16,-2.326L2.735,0.889L4.425,6.09L0,2.875L-4.425,6.09L-2.735,0.889L-7.16,-2.326L-1.69,-2.326Z"></path>
    <path transform="translate(144.364,174.5)" d="M0,-7.528L1.69,-2.326L7.16,-2.326L2.735,0.889L4.425,6.09L0,2.875L-4.425,6.09L-2.735,0.889L-7.16,-2.326L-1.69,-2.326Z"></path>
    <path transform="translate(216.364,184.5)" d="M-3.988,-3.988h7.976v7.976h-7.976Z"></path>
    <path transform="translate(161.818,184.5)" d="M0,-7.528L1.69,-2.326L7.16,-2.326L2.735,0.889L4.425,6.09L0,2.875L-4.425,6.09L-2.735,0.889L-7.16,-2.326L-1.69,-2.326Z"></path>
    <path transform="translate(74.545,184.5)" d="M0,-7.528L1.69,-2.326L7.16,-2.326L2.735,0.889L4.425,6.09L0,2.875L-4.425,6.09L-2.735,0.889L-7.16,-2.326L-1.69,-2.326Z"></path>
    <path transform="translate(118.182,174.741)" d="M-3.988,-3.988h7.976v7.976h-7.976Z"></path>
    <path transform="translate(164,166.505)" d="M-3.988,-3.988h7.976v7.976h-7.976Z"></path>
    <path transform="translate(246.909,184.5)" d="M0,-7.528L1.69,-2.326L7.16,-2.326L2.735,0.889L4.425,6.09L0,2.875L-4.425,6.09L-2.735,0.889L-7.16,-2.326L-1.69,-2.326Z"></path>
    <path transform="translate(70.182,175.502)" d="M-3.988,-3.988h7.976v7.976h-7.976Z"></path>
    <path transform="translate(323.273,184.5)" d="M0,-7.528L1.69,-2.326L7.16,-2.326L2.735,0.889L4.425,6.09L0,2.875L-4.425,6.09L-2.735,0.889L-7.16,-2.326L-1.69,-2.326Z"></path>
    <path transform="translate(144.364,164.5)" d="M-3.988,-3.988h7.976v7.976h-7.976Z"></path>
    <path transform="translate(142.182,154.741)" d="M0,-7.528L1.69,-2.326L7.16,-2.326L2.735,0.889L4.425,6.09L0,2.875L-4.425,6.09L-2.735,0.889L-7.16,-2.326L-1.69,-2.326Z"></path>
    <path transform="translate(102.909,184.5)" d="M-3.988,-3.988h7.976v7.976h-7.976Z"></path>
    <path transform="translate(153.091,179.618)" d="M0,-7.528L1.69,-2.326L7.16,-2.326L2.735,0.889L4.425,6.09L0,2.875L-4.425,6.09L-2.735,0.889L-7.16,-2.326L-1.69,-2.326Z"></path>
    <path transform="translate(166.182,155.979)" d="M0,-7.528L1.69,-2.326L7.16,-2.326L2.735,0.889L4.425,6.09L0,2.875L-4.425,6.09L-2.735,0.889L-7.16,-2.326L-1.69,-2.326Z"></path>
    <path transform="translate(89.818,184.5)" d="M-3.988,-3.988h7.976v7.976h-7.976Z"></path>
    <path transform="translate(205.455,176.94)" d="M0,-7.528L1.69,-2.326L7.16,-2.326L2.735,0.889L4.425,6.09L0,2.875L-4.425,6.09L-2.735,0.889L-7.16,-2.326L-1.69,-2.326Z"></path>
    <path transform="translate(203.273,167.181)" d="M-3.988,-3.988h7.976v7.976h-7.976Z"></path>
    <path transform="translate(146.545,145.743)" d="M-3.988,-3.988h7.976v7.976h-7.976Z"></path>
    <path transform="translate(203.273,157.181)" d="M0,-7.528L1.69,-2.326L7.16,-2.326L2.735,0.889L4.425,6.09L0,2.875L-4.425,6.09L-2.735,0.889L-7.16,-2.326L-1.69,-2.326Z"></path>
    <path transform="translate(181.455,153.301)" d="M-3.988,-3.988h7.976v7.976h-7.976Z"></path>
    <path transform="translate(131.273,184.5)" d="M0,-7.528L1.69,-2.326L7.16,-2.326L2.735,0.889L4.425,6.09L0,2.875L-4.425,6.09L-2.735,0.889L-7.16,-2.326L-1.69,-2.326Z"></path>
    <path transform="translate(181.455,143.301)" d="M-3.988,-3.988h7.976v7.976h-7.976Z"></path>
    <path transform="translate(212,162.299)" d="M0,-7.528L1.69,-2.326L7.16,-2.326L2.735,0.889L4.425,6.09L0,2.875L-4.425,6.09L-2.735,0.889L-7.16,-2.326L-1.69,-2.326Z"></path>
    <path transform="translate(113.818,165.743)" d="M-3.988,-3.988h7.976v7.976h-7.976Z"></path>
    <path transform="translate(174.909,135.741)" d="M0,-7.528L1.69,-2.326L7.16,-2.326L2.735,0.889L4.425,6.09L0,2.875L-4.425,6.09L-2.735,0.889L-7.16,-2.326L-1.69,-2.326Z"></path>
    <path transform="translate(166.182,145.979)" d="M0,-7.528L1.69,-2.326L7.16,-2.326L2.735,0.889L4.425,6.09L0,2.875L-4.425,6.09L-2.735,0.889L-7.16,-2.326L-1.69,-2.326Z"></path>
    <path transform="translate(240.364,175.502)" d="M-3.988,-3.988h7.976v7.976h-7.976Z"></path>
    <path transform="translate(140,138.183)" d="M-3.988,-3.988h7.976v7.976h-7.976Z"></path>
    <path transform="translate(188,172.058)" d="M0,-7.528L1.69,-2.326L7.16,-2.326L2.735,0.889L4.425,6.09L0,2.875L-4.425,6.09L-2.735,0.889L-7.16,-2.326L-1.69,-2.326Z"></path>
    <path transform="translate(116,155.984)" d="M-3.988,-3.988h7.976v7.976h-7.976Z"></path>
    <path transform="translate(209.818,149.62)" d="M0,-7.528L1.69,-2.326L7.16,-2.326L2.735,0.889L4.425,6.09L0,2.875L-4.425,6.09L-2.735,0.889L-7.16,-2.326L-1.69,-2.326Z"></path>
    <path transform="translate(105.091,174.741)" d="M-3.988,-3.988h7.976v7.976h-7.976Z"></path>
    <path transform="translate(281.818,184.5)" d="M0,-7.528L1.69,-2.326L7.16,-2.326L2.735,0.889L4.425,6.09L0,2.875L-4.425,6.09L-2.735,0.889L-7.16,-2.326L-1.69,-2.326Z"></path>
    <path transform="translate(126.909,169.859)" d="M-3.988,-3.988h7.976v7.976h-7.976Z"></path>
    <path transform="translate(183.636,130.859)" d="M0,-7.528L1.69,-2.326L7.16,-2.326L2.735,0.889L4.425,6.09L0,2.875L-4.425,6.09L-2.735,0.889L-7.16,-2.326L-1.69,-2.326Z"></path>
    <path transform="translate(216.364,174.5)" d="M0,-7.528L1.69,-2.326L7.16,-2.326L2.735,0.889L4.425,6.09L0,2.875L-4.425,6.09L-2.735,0.889L-7.16,-2.326L-1.69,-2.326Z"></path>
    <path transform="translate(137.818,128.424)" d="M0,-7.528L1.69,-2.326L7.16,-2.326L2.735,0.889L4.425,6.09L0,2.875L-4.425,6.09L-2.735,0.889L-7.16,-2.326L-1.69,-2.326Z"></path>
    <path transform="translate(105.091,160.861)" d="M-3.988,-3.988h7.976v7.976h-7.976Z"></path>
    <path transform="translate(242.545,165.743)" d="M0,-7.528L1.69,-2.326L7.16,-2.326L2.735,0.889L4.425,6.09L0,2.875L-4.425,6.09L-2.735,0.889L-7.16,-2.326L-1.69,-2.326Z"></path>
    <path transform="translate(183.636,120.859)" d="M-3.988,-3.988h7.976v7.976h-7.976Z"></path>
    <path transform="translate(194.545,162.299)" d="M0,-7.528L1.69,-2.326L7.16,-2.326L2.735,0.889L4.425,6.09L0,2.875L-4.425,6.09L-2.735,0.889L-7.16,-2.326L-1.69,-2.326Z"></path>
    <path transform="translate(83.273,176.94)" d="M-3.988,-3.988h7.976v7.976h-7.976Z"></path>
    <path transform="translate(236,158.183)" d="M0,-7.528L1.69,-2.326L7.16,-2.326L2.735,0.889L4.425,6.09L0,2.875L-4.425,6.09L-2.735,0.889L-7.16,-2.326L-1.69,-2.326Z"></path>
    <path transform="translate(72.364,165.743)" d="M-3.988,-3.988h7.976v7.976h-7.976Z"></path>
    <path transform="translate(222.909,166.94)" d="M0,-7.528L1.69,-2.326L7.16,-2.326L2.735,0.889L4.425,6.09L0,2.875L-4.425,6.09L-2.735,0.889L-7.16,-2.326L-1.69,-2.326Z"></path>
    <path transform="translate(170.545,126.743)" d="M-3.988,-3.988h7.976v7.976h-7.976Z"></path>
    <path transform="translate(205.455,140.623)" d="M0,-7.528L1.69,-2.326L7.16,-2.326L2.735,0.889L4.425,6.09L0,2.875L-4.425,6.09L-2.735,0.889L-7.16,-2.326L-1.69,-2.326Z"></path>
    <path transform="translate(116,145.984)" d="M-3.988,-3.988h7.976v7.976h-7.976Z"></path>
    <path transform="translate(140,118.665)" d="M0,-7.528L1.69,-2.326L7.16,-2.326L2.735,0.889L4.425,6.09L0,2.875L-4.425,6.09L-2.735,0.889L-7.16,-2.326L-1.69,-2.326Z"></path>
    <path transform="translate(98.545,153.301)" d="M-3.988,-3.988h7.976v7.976h-7.976Z"></path>
    <path transform="translate(220.727,157.181)" d="M0,-7.528L1.69,-2.326L7.16,-2.326L2.735,0.889L4.425,6.09L0,2.875L-4.425,6.09L-2.735,0.889L-7.16,-2.326L-1.69,-2.326Z"></path>
    <path transform="translate(140,108.665)" d="M-3.988,-3.988h7.976v7.976h-7.976Z"></path>
    <path transform="translate(216.364,142.06)" d="M0,-7.528L1.69,-2.326L7.16,-2.326L2.735,0.889L4.425,6.09L0,2.875L-4.425,6.09L-2.735,0.889L-7.16,-2.326L-1.69,-2.326Z"></path>
    <path transform="translate(113.818,136.225)" d="M-3.988,-3.988h7.976v7.976h-7.976Z"></path>
    <path transform="translate(227.273,179.618)" d="M0,-7.528L1.69,-2.326L7.16,-2.326L2.735,0.889L4.425,6.09L0,2.875L-4.425,6.09L-2.735,0.889L-7.16,-2.326L-1.69,-2.326Z"></path>
    <path transform="translate(94.182,175.502)" d="M-3.988,-3.988h7.976v7.976h-7.976Z"></path>
    <path transform="translate(216.364,132.06)" d="M0,-7.528L1.69,-2.326L7.16,-2.326L2.735,0.889L4.425,6.09L0,2.875L-4.425,6.09L-2.735,0.889L-7.16,-2.326L-1.69,-2.326Z"></path>
    <path transform="translate(102.909,144.303)" d="M-3.988,-3.988h7.976v7.976h-7.976Z"></path>
    <path transform="translate(231.636,149.185)" d="M0,-7.528L1.69,-2.326L7.16,-2.326L2.735,0.889L4.425,6.09L0,2.875L-4.425,6.09L-2.735,0.889L-7.16,-2.326L-1.69,-2.326Z"></path>
    <path transform="translate(50.545,184.5)" d="M-3.988,-3.988h7.976v7.976h-7.976Z"></path>
    <path transform="translate(185.818,111.1)" d="M0,-7.528L1.69,-2.326L7.16,-2.326L2.735,0.889L4.425,6.09L0,2.875L-4.425,6.09L-2.735,0.889L-7.16,-2.326L-1.69,-2.326Z"></path>
    <path transform="translate(183.636,101.34)" d="M-3.988,-3.988h7.976v7.976h-7.976Z"></path>
    <path transform="translate(318.909,175.502)" d="M0,-7.528L1.69,-2.326L7.16,-2.326L2.735,0.889L4.425,6.09L0,2.875L-4.425,6.09L-2.735,0.889L-7.16,-2.326L-1.69,-2.326Z"></path>
    <path transform="translate(94.182,165.502)" d="M-3.988,-3.988h7.976v7.976h-7.976Z"></path>
    <path transform="translate(253.455,176.94)" d="M0,-7.528L1.69,-2.326L7.16,-2.326L2.735,0.889L4.425,6.09L0,2.875L-4.425,6.09L-2.735,0.889L-7.16,-2.326L-1.69,-2.326Z"></path>
    <path transform="translate(212,123.063)" d="M-3.988,-3.988h7.976v7.976h-7.976Z"></path>
    <path transform="translate(131.273,160.861)" d="M0,-7.528L1.69,-2.326L7.16,-2.326L2.735,0.889L4.425,6.09L0,2.875L-4.425,6.09L-2.735,0.889L-7.16,-2.326L-1.69,-2.326Z"></path>
    <path transform="translate(109.455,127.227)" d="M-3.988,-3.988h7.976v7.976h-7.976Z"></path>
    <path transform="translate(238.182,141.625)" d="M0,-7.528L1.69,-2.326L7.16,-2.326L2.735,0.889L4.425,6.09L0,2.875L-4.425,6.09L-2.735,0.889L-7.16,-2.326L-1.69,-2.326Z"></path>
    <path transform="translate(74.545,155.984)" d="M-3.988,-3.988h7.976v7.976h-7.976Z"></path>
    <path transform="translate(255.636,167.181)" d="M0,-7.528L1.69,-2.326L7.16,-2.326L2.735,0.889L4.425,6.09L0,2.875L-4.425,6.09L-2.735,0.889L-7.16,-2.326L-1.69,-2.326Z"></path>
    <path transform="translate(120.364,128.665)" d="M-3.988,-3.988h7.976v7.976h-7.976Z"></path>
    <path transform="translate(85.455,160.62)" d="M0,-7.528L1.69,-2.326L7.16,-2.326L2.735,0.889L4.425,6.09L0,2.875L-4.425,6.09L-2.735,0.889L-7.16,-2.326L-1.69,-2.326Z"></path>
    <path transform="translate(133.455,149.859)" d="M-3.988,-3.988h7.976v7.976h-7.976Z"></path>
    <path transform="translate(220.727,118.18)" d="M0,-7.528L1.69,-2.326L7.16,-2.326L2.735,0.889L4.425,6.09L0,2.875L-4.425,6.09L-2.735,0.889L-7.16,-2.326L-1.69,-2.326Z"></path>
    <path transform="translate(111.636,117.468)" d="M0,-7.528L1.69,-2.326L7.16,-2.326L2.735,0.889L4.425,6.09L0,2.875L-4.425,6.09L-2.735,0.889L-7.16,-2.326L-1.69,-2.326Z"></path>
    <path transform="translate(124.727,141.102)" d="M-3.988,-3.988h7.976v7.976h-7.976Z"></path>
    <path transform="translate(155.273,161.623)" d="M0,-7.528L1.69,-2.326L7.16,-2.326L2.735,0.889L4.425,6.09L0,2.875L-4.425,6.09L-2.735,0.889L-7.16,-2.326L-1.69,-2.326Z"></path>
    <path transform="translate(168.364,116.984)" d="M-3.988,-3.988h7.976v7.976h-7.976Z"></path>
    <path transform="translate(98.545,135.305)" d="M-3.988,-3.988h7.976v7.976h-7.976Z"></path>
    <path transform="translate(216.364,109.183)" d="M0,-7.528L1.69,-2.326L7.16,-2.326L2.735,0.889L4.425,6.09L0,2.875L-4.425,6.09L-2.735,0.889L-7.16,-2.326L-1.69,-2.326Z"></path>
    <path transform="translate(61.455,170.62)" d="M-3.988,-3.988h7.976v7.976h-7.976Z"></path>
    <path transform="translate(183.636,91.34)" d="M0,-7.528L1.69,-2.326L7.16,-2.326L2.735,0.889L4.425,6.09L0,2.875L-4.425,6.09L-2.735,0.889L-7.16,-2.326L-1.69,-2.326Z"></path>
    <path transform="translate(109.455,107.709)" d="M-3.988,-3.988h7.976v7.976h-7.976Z"></path>
    <path transform="translate(209.818,101.623)" d="M0,-7.528L1.69,-2.326L7.16,-2.326L2.735,0.889L4.425,6.09L0,2.875L-4.425,6.09L-2.735,0.889L-7.16,-2.326L-1.69,-2.326Z"></path>
    <path transform="translate(150.909,136.746)" d="M-3.988,-3.988h7.976v7.976h-7.976Z"></path>
    <path transform="translate(198.909,148.183)" d="M0,-7.528L1.69,-2.326L7.16,-2.326L2.735,0.889L4.425,6.09L0,2.875L-4.425,6.09L-2.735,0.889L-7.16,-2.326L-1.69,-2.326Z"></path>
    <path transform="translate(41.818,179.618)" d="M-3.988,-3.988h7.976v7.976h-7.976Z"></path>
    <path transform="translate(262.182,184.5)" d="M0,-7.528L1.69,-2.326L7.16,-2.326L2.735,0.889L4.425,6.09L0,2.875L-4.425,6.09L-2.735,0.889L-7.16,-2.326L-1.69,-2.326Z"></path>
    <path transform="translate(83.273,150.861)" d="M-3.988,-3.988h7.976v7.976h-7.976Z"></path>
    <path transform="translate(214.182,92.625)" d="M0,-7.528L1.69,-2.326L7.16,-2.326L2.735,0.889L4.425,6.09L0,2.875L-4.425,6.09L-2.735,0.889L-7.16,-2.326L-1.69,-2.326Z"></path>
    <path transform="translate(142.182,98.906)" d="M-3.988,-3.988h7.976v7.976h-7.976Z"></path>
    <path transform="translate(144.364,89.147)" d="M0,-7.528L1.69,-2.326L7.16,-2.326L2.735,0.889L4.425,6.09L0,2.875L-4.425,6.09L-2.735,0.889L-7.16,-2.326L-1.69,-2.326Z"></path>
    <path transform="translate(146.545,79.388)" d="M-3.988,-3.988h7.976v7.976h-7.976Z"></path>
    <path transform="translate(185.818,81.581)" d="M0,-7.528L1.69,-2.326L7.16,-2.326L2.735,0.889L4.425,6.09L0,2.875L-4.425,6.09L-2.735,0.889L-7.16,-2.326L-1.69,-2.326Z"></path>
    <path transform="translate(161.818,136.981)" d="M-3.988,-3.988h7.976v7.976h-7.976Z"></path>
    <path transform="translate(153.091,126.986)" d="M0,-7.528L1.69,-2.326L7.16,-2.326L2.735,0.889L4.425,6.09L0,2.875L-4.425,6.09L-2.735,0.889L-7.16,-2.326L-1.69,-2.326Z"></path>
    <path transform="translate(150.909,117.227)" d="M-3.988,-3.988h7.976v7.976h-7.976Z"></path>
    <path transform="translate(262.182,159.62)" d="M0,-7.528L1.69,-2.326L7.16,-2.326L2.735,0.889L4.425,6.09L0,2.875L-4.425,6.09L-2.735,0.889L-7.16,-2.326L-1.69,-2.326Z"></path>
    <path transform="translate(150.909,107.227)" d="M-3.988,-3.988h7.976v7.976h-7.976Z"></path>
    <path transform="translate(314.545,166.505)" d="M0,-7.528L1.69,-2.326L7.16,-2.326L2.735,0.889L4.425,6.09L0,2.875L-4.425,6.09L-2.735,0.889L-7.16,-2.326L-1.69,-2.326Z"></path>
    <path transform="translate(185.818,71.581)" d="M-3.988,-3.988h7.976v7.976h-7.976Z"></path>
    <path transform="translate(240.364,131.866)" d="M0,-7.528L1.69,-2.326L7.16,-2.326L2.735,0.889L4.425,6.09L0,2.875L-4.425,6.09L-2.735,0.889L-7.16,-2.326L-1.69,-2.326Z"></path>
    <path transform="translate(183.636,61.822)" d="M-3.988,-3.988h7.976v7.976h-7.976Z"></path>
    <path transform="translate(251.273,158.183)" d="M0,-7.528L1.69,-2.326L7.16,-2.326L2.735,0.889L4.425,6.09L0,2.875L-4.425,6.09L-2.735,0.889L-7.16,-2.326L-1.69,-2.326Z"></path>
    <path transform="translate(161.818,109.424)" d="M-3.988,-3.988h7.976v7.976h-7.976Z"></path>
    <path transform="translate(133.455,94.024)" d="M0,-7.528L1.69,-2.326L7.16,-2.326L2.735,0.889L4.425,6.09L0,2.875L-4.425,6.09L-2.735,0.889L-7.16,-2.326L-1.69,-2.326Z"></path>
    <path transform="translate(98.545,125.305)" d="M-3.988,-3.988h7.976v7.976h-7.976Z"></path>
    <path transform="translate(216.364,82.866)" d="M0,-7.528L1.69,-2.326L7.16,-2.326L2.735,0.889L4.425,6.09L0,2.875L-4.425,6.09L-2.735,0.889L-7.16,-2.326L-1.69,-2.326Z"></path>
    <path transform="translate(109.455,97.709)" d="M-3.988,-3.988h7.976v7.976h-7.976Z"></path>
    <path transform="translate(142.182,70.39)" d="M0,-7.528L1.69,-2.326L7.16,-2.326L2.735,0.889L4.425,6.09L0,2.875L-4.425,6.09L-2.735,0.889L-7.16,-2.326L-1.69,-2.326Z"></path>
    <path transform="translate(196.727,135.741)" d="M-3.988,-3.988h7.976v7.976h-7.976Z"></path>
    <path transform="translate(222.909,101.623)" d="M0,-7.528L1.69,-2.326L7.16,-2.326L2.735,0.889L4.425,6.09L0,2.875L-4.425,6.09L-2.735,0.889L-7.16,-2.326L-1.69,-2.326Z"></path>
    <path transform="translate(87.636,141.863)" d="M-3.988,-3.988h7.976v7.976h-7.976Z"></path>
    <path transform="translate(205.455,130.623)" d="M0,-7.528L1.69,-2.326L7.16,-2.326L2.735,0.889L4.425,6.09L0,2.875L-4.425,6.09L-2.735,0.889L-7.16,-2.326L-1.69,-2.326Z"></path>
    <path transform="translate(166.182,100.426)" d="M-3.988,-3.988h7.976v7.976h-7.976Z"></path>
    <path transform="translate(225.091,137.178)" d="M0,-7.528L1.69,-2.326L7.16,-2.326L2.735,0.889L4.425,6.09L0,2.875L-4.425,6.09L-2.735,0.889L-7.16,-2.326L-1.69,-2.326Z"></path>
    <path transform="translate(170.545,91.428)" d="M-3.988,-3.988h7.976v7.976h-7.976Z"></path>
    <path transform="translate(281.818,174.5)" d="M0,-7.528L1.69,-2.326L7.16,-2.326L2.735,0.889L4.425,6.09L0,2.875L-4.425,6.09L-2.735,0.889L-7.16,-2.326L-1.69,-2.326Z"></path>
    <path transform="translate(159.636,92.866)" d="M-3.988,-3.988h7.976v7.976h-7.976Z"></path>
    <path transform="translate(260,149.861)" d="M0,-7.528L1.69,-2.326L7.16,-2.326L2.735,0.889L4.425,6.09L0,2.875L-4.425,6.09L-2.735,0.889L-7.16,-2.326L-1.69,-2.326Z"></path>
    <path transform="translate(122.545,118.906)" d="M-3.988,-3.988h7.976v7.976h-7.976Z"></path>
    <path transform="translate(137.818,61.392)" d="M0,-7.528L1.69,-2.326L7.16,-2.326L2.735,0.889L4.425,6.09L0,2.875L-4.425,6.09L-2.735,0.889L-7.16,-2.326L-1.69,-2.326Z"></path>
    <path transform="translate(150.909,65.508)" d="M-3.988,-3.988h7.976v7.976h-7.976Z"></path>
    <path transform="translate(216.364,72.866)" d="M0,-7.528L1.69,-2.326L7.16,-2.326L2.735,0.889L4.425,6.09L0,2.875L-4.425,6.09L-2.735,0.889L-7.16,-2.326L-1.69,-2.326Z"></path>
    <path transform="translate(96.364,115.546)" d="M-3.988,-3.988h7.976v7.976h-7.976Z"></path>
    <path transform="translate(196.727,125.741)" d="M0,-7.528L1.69,-2.326L7.16,-2.326L2.735,0.889L4.425,6.09L0,2.875L-4.425,6.09L-2.735,0.889L-7.16,-2.326L-1.69,-2.326Z"></path>
    <path transform="translate(126.909,109.908)" d="M-3.988,-3.988h7.976v7.976h-7.976Z"></path>
    <path transform="translate(185.818,52.063)" d="M0,-7.528L1.69,-2.326L7.16,-2.326L2.735,0.889L4.425,6.09L0,2.875L-4.425,6.09L-2.735,0.889L-7.16,-2.326L-1.69,-2.326Z"></path>
    <path transform="translate(196.727,115.741)" d="M-3.988,-3.988h7.976v7.976h-7.976Z"></path>
    <path transform="translate(205.455,110.859)" d="M0,-7.528L1.69,-2.326L7.16,-2.326L2.735,0.889L4.425,6.09L0,2.875L-4.425,6.09L-2.735,0.889L-7.16,-2.326L-1.69,-2.326Z"></path>
    <path transform="translate(20,184.5)" d="M-3.988,-3.988h7.976v7.976h-7.976Z"></path>
    <path transform="translate(207.636,77.984)" d="M0,-7.528L1.69,-2.326L7.16,-2.326L2.735,0.889L4.425,6.09L0,2.875L-4.425,6.09L-2.735,0.889L-7.16,-2.326L-1.69,-2.326Z"></path>
    <path transform="translate(133.455,84.024)" d="M-3.988,-3.988h7.976v7.976h-7.976Z"></path>
    <path transform="translate(170.545,81.428)" d="M0,-7.528L1.69,-2.326L7.16,-2.326L2.735,0.889L4.425,6.09L0,2.875L-4.425,6.09L-2.735,0.889L-7.16,-2.326L-1.69,-2.326Z"></path>
    <path transform="translate(174.909,109.424)" d="M0,-7.528L1.69,-2.326L7.16,-2.326L2.735,0.889L4.425,6.09L0,2.875L-4.425,6.09L-2.735,0.889L-7.16,-2.326L-1.69,-2.326Z"></path>
    <path transform="translate(118.182,102.827)" d="M-3.988,-3.988h7.976v7.976h-7.976Z"></path>
    <path transform="translate(105.091,88.711)" d="M-3.988,-3.988h7.976v7.976h-7.976Z"></path>
    <path transform="translate(144.364,53.832)" d="M0,-7.528L1.69,-2.326L7.16,-2.326L2.735,0.889L4.425,6.09L0,2.875L-4.425,6.09L-2.735,0.889L-7.16,-2.326L-1.69,-2.326Z"></path>
    <path transform="translate(105.091,78.711)" d="M-3.988,-3.988h7.976v7.976h-7.976Z"></path>
    <path transform="translate(225.091,127.178)" d="M0,-7.528L1.69,-2.326L7.16,-2.326L2.735,0.889L4.425,6.09L0,2.875L-4.425,6.09L-2.735,0.889L-7.16,-2.326L-1.69,-2.326Z"></path>
    <path transform="translate(334.182,184.5)" d="M-3.988,-3.988h7.976v7.976h-7.976Z"></path>
    <path transform="translate(410.545,184.5)" d="M0,-7.528L1.69,-2.326L7.16,-2.326L2.735,0.889L4.425,6.09L0,2.875L-4.425,6.09L-2.735,0.889L-7.16,-2.326L-1.69,-2.326Z"></path>
    <path transform="translate(438.909,184.5)" d="M0,-7.528L1.69,-2.326L7.16,-2.326L2.735,0.889L4.425,6.09L0,2.875L-4.425,6.09L-2.735,0.889L-7.16,-2.326L-1.69,-2.326Z"></path>
    <path transform="translate(310.182,184.5)" d="M-3.988,-3.988h7.976v7.976h-7.976Z"></path>
    <path transform="translate(469.455,184.5)" d="M0,-7.528L1.69,-2.326L7.16,-2.326L2.735,0.889L4.425,6.09L0,2.875L-4.425,6.09L-2.735,0.889L-7.16,-2.326L-1.69,-2.326Z"></path>
    <path transform="translate(305.818,175.502)" d="M-3.988,-3.988h7.976v7.976h-7.976Z"></path>
    <path transform="translate(325.455,167.942)" d="M-3.988,-3.988h7.976v7.976h-7.976Z"></path>
    <path transform="translate(438.909,174.5)" d="M0,-7.528L1.69,-2.326L7.16,-2.326L2.735,0.889L4.425,6.09L0,2.875L-4.425,6.09L-2.735,0.889L-7.16,-2.326L-1.69,-2.326Z"></path>
    <path transform="translate(323.273,158.183)" d="M-3.988,-3.988h7.976v7.976h-7.976Z"></path>
    <path transform="translate(438.909,164.5)" d="M0,-7.528L1.69,-2.326L7.16,-2.326L2.735,0.889L4.425,6.09L0,2.875L-4.425,6.09L-2.735,0.889L-7.16,-2.326L-1.69,-2.326Z"></path>
    <path transform="translate(336.364,174.741)" d="M-3.988,-3.988h7.976v7.976h-7.976Z"></path>
    <path transform="translate(447.636,179.618)" d="M0,-7.528L1.69,-2.326L7.16,-2.326L2.735,0.889L4.425,6.09L0,2.875L-4.425,6.09L-2.735,0.889L-7.16,-2.326L-1.69,-2.326Z"></path>
    <path transform="translate(345.091,184.5)" d="M-3.988,-3.988h7.976v7.976h-7.976Z"></path>
    <path transform="translate(454.182,172.058)" d="M0,-7.528L1.69,-2.326L7.16,-2.326L2.735,0.889L4.425,6.09L0,2.875L-4.425,6.09L-2.735,0.889L-7.16,-2.326L-1.69,-2.326Z"></path>
    <path transform="translate(321.091,148.424)" d="M-3.988,-3.988h7.976v7.976h-7.976Z"></path>
    <path transform="translate(421.455,184.5)" d="M0,-7.528L1.69,-2.326L7.16,-2.326L2.735,0.889L4.425,6.09L0,2.875L-4.425,6.09L-2.735,0.889L-7.16,-2.326L-1.69,-2.326Z"></path>
    <path transform="translate(417.091,175.502)" d="M0,-7.528L1.69,-2.326L7.16,-2.326L2.735,0.889L4.425,6.09L0,2.875L-4.425,6.09L-2.735,0.889L-7.16,-2.326L-1.69,-2.326Z"></path>
    <path transform="translate(585.091,184.5)" d="M-3.988,-3.988h7.976v7.976h-7.976Z"></path>
    <path transform="translate(332,153.301)" d="M-3.988,-3.988h7.976v7.976h-7.976Z"></path>
    <path transform="translate(393.091,184.5)" d="M0,-7.528L1.69,-2.326L7.16,-2.326L2.735,0.889L4.425,6.09L0,2.875L-4.425,6.09L-2.735,0.889L-7.16,-2.326L-1.69,-2.326Z"></path>
    <path transform="translate(244.727,150.623)" d="M-3.988,-3.988h7.976v7.976h-7.976Z"></path>
    <path transform="translate(377.818,184.5)" d="M0,-7.528L1.69,-2.326L7.16,-2.326L2.735,0.889L4.425,6.09L0,2.875L-4.425,6.09L-2.735,0.889L-7.16,-2.326L-1.69,-2.326Z"></path>
    <path transform="translate(262.182,140.102)" d="M-3.988,-3.988h7.976v7.976h-7.976Z"></path>
    <path transform="translate(423.636,167.942)" d="M0,-7.528L1.69,-2.326L7.16,-2.326L2.735,0.889L4.425,6.09L0,2.875L-4.425,6.09L-2.735,0.889L-7.16,-2.326L-1.69,-2.326Z"></path>
    <path transform="translate(338.545,164.982)" d="M-3.988,-3.988h7.976v7.976h-7.976Z"></path>
    <path transform="translate(454.182,162.058)" d="M0,-7.528L1.69,-2.326L7.16,-2.326L2.735,0.889L4.425,6.09L0,2.875L-4.425,6.09L-2.735,0.889L-7.16,-2.326L-1.69,-2.326Z"></path>
    <path transform="translate(421.455,158.183)" d="M-3.988,-3.988h7.976v7.976h-7.976Z"></path>
    <path transform="translate(399.636,176.94)" d="M0,-7.528L1.69,-2.326L7.16,-2.326L2.735,0.889L4.425,6.09L0,2.875L-4.425,6.09L-2.735,0.889L-7.16,-2.326L-1.69,-2.326Z"></path>
    <path transform="translate(332,143.301)" d="M-3.988,-3.988h7.976v7.976h-7.976Z"></path>
    <path transform="translate(471.636,174.741)" d="M0,-7.528L1.69,-2.326L7.16,-2.326L2.735,0.889L4.425,6.09L0,2.875L-4.425,6.09L-2.735,0.889L-7.16,-2.326L-1.69,-2.326Z"></path>
    <path transform="translate(212,63.868)" d="M-3.988,-3.988h7.976v7.976h-7.976Z"></path>
    <path transform="translate(502.182,184.5)" d="M0,-7.528L1.69,-2.326L7.16,-2.326L2.735,0.889L4.425,6.09L0,2.875L-4.425,6.09L-2.735,0.889L-7.16,-2.326L-1.69,-2.326Z"></path>
    <path transform="translate(246.909,124.306)" d="M-3.988,-3.988h7.976v7.976h-7.976Z"></path>
    <path transform="translate(432.364,156.94)" d="M0,-7.528L1.69,-2.326L7.16,-2.326L2.735,0.889L4.425,6.09L0,2.875L-4.425,6.09L-2.735,0.889L-7.16,-2.326L-1.69,-2.326Z"></path>
    <path transform="translate(404,167.942)" d="M0,-7.528L1.69,-2.326L7.16,-2.326L2.735,0.889L4.425,6.09L0,2.875L-4.425,6.09L-2.735,0.889L-7.16,-2.326L-1.69,-2.326Z"></path>
    <path transform="translate(356,184.5)" d="M-3.988,-3.988h7.976v7.976h-7.976Z"></path>
    <path transform="translate(358.182,174.741)" d="M-3.988,-3.988h7.976v7.976h-7.976Z"></path>
    <path transform="translate(454.182,152.058)" d="M0,-7.528L1.69,-2.326L7.16,-2.326L2.735,0.889L4.425,6.09L0,2.875L-4.425,6.09L-2.735,0.889L-7.16,-2.326L-1.69,-2.326Z"></path>
    <path transform="translate(342.909,155.984)" d="M-3.988,-3.988h7.976v7.976h-7.976Z"></path>
    <path transform="translate(486.909,184.5)" d="M0,-7.528L1.69,-2.326L7.16,-2.326L2.735,0.889L4.425,6.09L0,2.875L-4.425,6.09L-2.735,0.889L-7.16,-2.326L-1.69,-2.326Z"></path>
    <path transform="translate(388.727,175.502)" d="M0,-7.528L1.69,-2.326L7.16,-2.326L2.735,0.889L4.425,6.09L0,2.875L-4.425,6.09L-2.735,0.889L-7.16,-2.326L-1.69,-2.326Z"></path>
    <path transform="translate(327.636,134.303)" d="M-3.988,-3.988h7.976v7.976h-7.976Z"></path>
    <path transform="translate(430.182,179.618)" d="M0,-7.528L1.69,-2.326L7.16,-2.326L2.735,0.889L4.425,6.09L0,2.875L-4.425,6.09L-2.735,0.889L-7.16,-2.326L-1.69,-2.326Z"></path>
    <path transform="translate(312.364,156.746)" d="M-3.988,-3.988h7.976v7.976h-7.976Z"></path>
    <path transform="translate(430.182,147.181)" d="M-3.988,-3.988h7.976v7.976h-7.976Z"></path>
    <path transform="translate(428,137.422)" d="M0,-7.528L1.69,-2.326L7.16,-2.326L2.735,0.889L4.425,6.09L0,2.875L-4.425,6.09L-2.735,0.889L-7.16,-2.326L-1.69,-2.326Z"></path>
    <path transform="translate(412.727,153.301)" d="M-3.988,-3.988h7.976v7.976h-7.976Z"></path>
    <path transform="translate(388.727,165.502)" d="M0,-7.528L1.69,-2.326L7.16,-2.326L2.735,0.889L4.425,6.09L0,2.875L-4.425,6.09L-2.735,0.889L-7.16,-2.326L-1.69,-2.326Z"></path>
    <path transform="translate(443.273,155.502)" d="M0,-7.528L1.69,-2.326L7.16,-2.326L2.735,0.889L4.425,6.09L0,2.875L-4.425,6.09L-2.735,0.889L-7.16,-2.326L-1.69,-2.326Z"></path>
    <path transform="translate(406.182,145.741)" d="M-3.988,-3.988h7.976v7.976h-7.976Z"></path>
    <path transform="translate(369.091,179.618)" d="M-3.988,-3.988h7.976v7.976h-7.976Z"></path>
    <path transform="translate(441.091,145.743)" d="M0,-7.528L1.69,-2.326L7.16,-2.326L2.735,0.889L4.425,6.09L0,2.875L-4.425,6.09L-2.735,0.889L-7.16,-2.326L-1.69,-2.326Z"></path>
    <path transform="translate(316.727,139.426)" d="M-3.988,-3.988h7.976v7.976h-7.976Z"></path>
    <path transform="translate(425.818,127.663)" d="M0,-7.528L1.69,-2.326L7.16,-2.326L2.735,0.889L4.425,6.09L0,2.875L-4.425,6.09L-2.735,0.889L-7.16,-2.326L-1.69,-2.326Z"></path>
    <path transform="translate(246.909,114.306)" d="M-3.988,-3.988h7.976v7.976h-7.976Z"></path>
    <path transform="translate(458.545,184.5)" d="M0,-7.528L1.69,-2.326L7.16,-2.326L2.735,0.889L4.425,6.09L0,2.875L-4.425,6.09L-2.735,0.889L-7.16,-2.326L-1.69,-2.326Z"></path>
    <path transform="translate(305.818,149.185)" d="M-3.988,-3.988h7.976v7.976h-7.976Z"></path>
    <path transform="translate(395.273,157.942)" d="M0,-7.528L1.69,-2.326L7.16,-2.326L2.735,0.889L4.425,6.09L0,2.875L-4.425,6.09L-2.735,0.889L-7.16,-2.326L-1.69,-2.326Z"></path>
    <path transform="translate(414.909,140.859)" d="M0,-7.528L1.69,-2.326L7.16,-2.326L2.735,0.889L4.425,6.09L0,2.875L-4.425,6.09L-2.735,0.889L-7.16,-2.326L-1.69,-2.326Z"></path>
    <path transform="translate(314.545,129.667)" d="M-3.988,-3.988h7.976v7.976h-7.976Z"></path>
    <path transform="translate(452,142.299)" d="M0,-7.528L1.69,-2.326L7.16,-2.326L2.735,0.889L4.425,6.09L0,2.875L-4.425,6.09L-2.735,0.889L-7.16,-2.326L-1.69,-2.326Z"></path>
    <path transform="translate(340.727,138.419)" d="M-3.988,-3.988h7.976v7.976h-7.976Z"></path>
    <path transform="translate(316.727,119.908)" d="M-3.988,-3.988h7.976v7.976h-7.976Z"></path>
    <path transform="translate(537.091,184.5)" d="M0,-7.528L1.69,-2.326L7.16,-2.326L2.735,0.889L4.425,6.09L0,2.875L-4.425,6.09L-2.735,0.889L-7.16,-2.326L-1.69,-2.326Z"></path>
    <path transform="translate(268.727,176.94)" d="M-3.988,-3.988h7.976v7.976h-7.976Z"></path>
    <path transform="translate(401.818,136.743)" d="M0,-7.528L1.69,-2.326L7.16,-2.326L2.735,0.889L4.425,6.09L0,2.875L-4.425,6.09L-2.735,0.889L-7.16,-2.326L-1.69,-2.326Z"></path>
    <path transform="translate(428,117.903)" d="M0,-7.528L1.69,-2.326L7.16,-2.326L2.735,0.889L4.425,6.09L0,2.875L-4.425,6.09L-2.735,0.889L-7.16,-2.326L-1.69,-2.326Z"></path>
    <path transform="translate(414.909,130.859)" d="M-3.988,-3.988h7.976v7.976h-7.976Z"></path>
    <path transform="translate(325.455,115.026)" d="M-3.988,-3.988h7.976v7.976h-7.976Z"></path>
    <path transform="translate(410.545,121.861)" d="M0,-7.528L1.69,-2.326L7.16,-2.326L2.735,0.889L4.425,6.09L0,2.875L-4.425,6.09L-2.735,0.889L-7.16,-2.326L-1.69,-2.326Z"></path>
    <path transform="translate(382.182,157.942)" d="M-3.988,-3.988h7.976v7.976h-7.976Z"></path>
    <path transform="translate(410.545,111.861)" d="M0,-7.528L1.69,-2.326L7.16,-2.326L2.735,0.889L4.425,6.09L0,2.875L-4.425,6.09L-2.735,0.889L-7.16,-2.326L-1.69,-2.326Z"></path>
    <path transform="translate(358.182,164.741)" d="M0,-7.528L1.69,-2.326L7.16,-2.326L2.735,0.889L4.425,6.09L0,2.875L-4.425,6.09L-2.735,0.889L-7.16,-2.326L-1.69,-2.326Z"></path>
    <path transform="translate(334.182,126.743)" d="M-3.988,-3.988h7.976v7.976h-7.976Z"></path>
    <path transform="translate(310.182,112.348)" d="M-3.988,-3.988h7.976v7.976h-7.976Z"></path>
    <path transform="translate(338.545,117.745)" d="M0,-7.528L1.69,-2.326L7.16,-2.326L2.735,0.889L4.425,6.09L0,2.875L-4.425,6.09L-2.735,0.889L-7.16,-2.326L-1.69,-2.326Z"></path>
    <path transform="translate(264.364,130.343)" d="M-3.988,-3.988h7.976v7.976h-7.976Z"></path>
    <path transform="translate(340.727,107.986)" d="M0,-7.528L1.69,-2.326L7.16,-2.326L2.735,0.889L4.425,6.09L0,2.875L-4.425,6.09L-2.735,0.889L-7.16,-2.326L-1.69,-2.326Z"></path>
    <path transform="translate(212,53.868)" d="M-3.988,-3.988h7.976v7.976h-7.976Z"></path>
    <path transform="translate(388.727,150.382)" d="M0,-7.528L1.69,-2.326L7.16,-2.326L2.735,0.889L4.425,6.09L0,2.875L-4.425,6.09L-2.735,0.889L-7.16,-2.326L-1.69,-2.326Z"></path>
    <path transform="translate(312.364,102.589)" d="M-3.988,-3.988h7.976v7.976h-7.976Z"></path>
    <path transform="translate(375.636,172.058)" d="M0,-7.528L1.69,-2.326L7.16,-2.326L2.735,0.889L4.425,6.09L0,2.875L-4.425,6.09L-2.735,0.889L-7.16,-2.326L-1.69,-2.326Z"></path>
    <path transform="translate(318.909,95.029)" d="M-3.988,-3.988h7.976v7.976h-7.976Z"></path>
    <path transform="translate(395.273,129.183)" d="M0,-7.528L1.69,-2.326L7.16,-2.326L2.735,0.889L4.425,6.09L0,2.875L-4.425,6.09L-2.735,0.889L-7.16,-2.326L-1.69,-2.326Z"></path>
    <path transform="translate(236,122.868)" d="M-3.988,-3.988h7.976v7.976h-7.976Z"></path>
    <path transform="translate(393.091,119.424)" d="M0,-7.528L1.69,-2.326L7.16,-2.326L2.735,0.889L4.425,6.09L0,2.875L-4.425,6.09L-2.735,0.889L-7.16,-2.326L-1.69,-2.326Z"></path>
    <path transform="translate(327.636,105.267)" d="M-3.988,-3.988h7.976v7.976h-7.976Z"></path>
    <path transform="translate(382.182,142.822)" d="M0,-7.528L1.69,-2.326L7.16,-2.326L2.735,0.889L4.425,6.09L0,2.875L-4.425,6.09L-2.735,0.889L-7.16,-2.326L-1.69,-2.326Z"></path>
    <path transform="translate(414.909,102.863)" d="M0,-7.528L1.69,-2.326L7.16,-2.326L2.735,0.889L4.425,6.09L0,2.875L-4.425,6.09L-2.735,0.889L-7.16,-2.326L-1.69,-2.326Z"></path>
    <path transform="translate(303.636,165.743)" d="M-3.988,-3.988h7.976v7.976h-7.976Z"></path>
    <path transform="translate(334.182,97.707)" d="M-3.988,-3.988h7.976v7.976h-7.976Z"></path>
    <path transform="translate(329.818,88.709)" d="M0,-7.528L1.69,-2.326L7.16,-2.326L2.735,0.889L4.425,6.09L0,2.875L-4.425,6.09L-2.735,0.889L-7.16,-2.326L-1.69,-2.326Z"></path>
    <path transform="translate(255.636,119.424)" d="M-3.988,-3.988h7.976v7.976h-7.976Z"></path>
    <path transform="translate(325.455,79.711)" d="M0,-7.528L1.69,-2.326L7.16,-2.326L2.735,0.889L4.425,6.09L0,2.875L-4.425,6.09L-2.735,0.889L-7.16,-2.326L-1.69,-2.326Z"></path>
    <path transform="translate(290.545,179.618)" d="M0,-7.528L1.69,-2.326L7.16,-2.326L2.735,0.889L4.425,6.09L0,2.875L-4.425,6.09L-2.735,0.889L-7.16,-2.326L-1.69,-2.326Z"></path>
    <path transform="translate(362.545,155.743)" d="M0,-7.528L1.69,-2.326L7.16,-2.326L2.735,0.889L4.425,6.09L0,2.875L-4.425,6.09L-2.735,0.889L-7.16,-2.326L-1.69,-2.326Z"></path>
    <path transform="translate(371.273,163.06)" d="M-3.988,-3.988h7.976v7.976h-7.976Z"></path>
    <path transform="translate(410.545,93.865)" d="M0,-7.528L1.69,-2.326L7.16,-2.326L2.735,0.889L4.425,6.09L0,2.875L-4.425,6.09L-2.735,0.889L-7.16,-2.326L-1.69,-2.326Z"></path>
    <path transform="translate(351.636,151.102)" d="M0,-7.528L1.69,-2.326L7.16,-2.326L2.735,0.889L4.425,6.09L0,2.875L-4.425,6.09L-2.735,0.889L-7.16,-2.326L-1.69,-2.326Z"></path>
    <path transform="translate(253.455,135.22)" d="M-3.988,-3.988h7.976v7.976h-7.976Z"></path>
    <path transform="translate(303.636,139.426)" d="M-3.988,-3.988h7.976v7.976h-7.976Z"></path>
    <path transform="translate(620,184.5)" d="M0,-7.528L1.69,-2.326L7.16,-2.326L2.735,0.889L4.425,6.09L0,2.875L-4.425,6.09L-2.735,0.889L-7.16,-2.326L-1.69,-2.326Z"></path>
    <path transform="translate(390.909,109.665)" d="M-3.988,-3.988h7.976v7.976h-7.976Z"></path>
    <path transform="translate(375.636,150.382)" d="M0,-7.528L1.69,-2.326L7.16,-2.326L2.735,0.889L4.425,6.09L0,2.875L-4.425,6.09L-2.735,0.889L-7.16,-2.326L-1.69,-2.326Z"></path>
    <path transform="translate(249.091,104.547)" d="M-3.988,-3.988h7.976v7.976h-7.976Z"></path>
    <path transform="translate(288.364,166.94)" d="M0,-7.528L1.69,-2.326L7.16,-2.326L2.735,0.889L4.425,6.09L0,2.875L-4.425,6.09L-2.735,0.889L-7.16,-2.326L-1.69,-2.326Z"></path>
    <path transform="translate(279.636,162.058)" d="M-3.988,-3.988h7.976v7.976h-7.976Z"></path>
    <path transform="translate(382.182,132.822)" d="M0,-7.528L1.69,-2.326L7.16,-2.326L2.735,0.889L4.425,6.09L0,2.875L-4.425,6.09L-2.735,0.889L-7.16,-2.326L-1.69,-2.326Z"></path>
    <path transform="translate(251.273,94.788)" d="M-3.988,-3.988h7.976v7.976h-7.976Z"></path>
    <path transform="translate(401.818,106.979)" d="M0,-7.528L1.69,-2.326L7.16,-2.326L2.735,0.889L4.425,6.09L0,2.875L-4.425,6.09L-2.735,0.889L-7.16,-2.326L-1.69,-2.326Z"></path>
    <path transform="translate(308,93.591)" d="M-3.988,-3.988h7.976v7.976h-7.976Z"></path>
    <path transform="translate(401.818,88.983)" d="M0,-7.528L1.69,-2.326L7.16,-2.326L2.735,0.889L4.425,6.09L0,2.875L-4.425,6.09L-2.735,0.889L-7.16,-2.326L-1.69,-2.326Z"></path>
    <path transform="translate(421.455,95.303)" d="M0,-7.528L1.69,-2.326L7.16,-2.326L2.735,0.889L4.425,6.09L0,2.875L-4.425,6.09L-2.735,0.889L-7.16,-2.326L-1.69,-2.326Z"></path>
    <path transform="translate(270.909,167.181)" d="M-3.988,-3.988h7.976v7.976h-7.976Z"></path>
    <path transform="translate(312.364,84.593)" d="M-3.988,-3.988h7.976v7.976h-7.976Z"></path>
    <path transform="translate(421.455,85.303)" d="M0,-7.528L1.69,-2.326L7.16,-2.326L2.735,0.889L4.425,6.09L0,2.875L-4.425,6.09L-2.735,0.889L-7.16,-2.326L-1.69,-2.326Z"></path>
    <path transform="translate(299.273,184.5)" d="M-3.988,-3.988h7.976v7.976h-7.976Z"></path>
    <path transform="translate(305.818,124.785)" d="M0,-7.528L1.69,-2.326L7.16,-2.326L2.735,0.889L4.425,6.09L0,2.875L-4.425,6.09L-2.735,0.889L-7.16,-2.326L-1.69,-2.326Z"></path>
    <path transform="translate(336.364,81.149)" d="M-3.988,-3.988h7.976v7.976h-7.976Z"></path>
    <path transform="translate(377.818,123.824)" d="M0,-7.528L1.69,-2.326L7.16,-2.326L2.735,0.889L4.425,6.09L0,2.875L-4.425,6.09L-2.735,0.889L-7.16,-2.326L-1.69,-2.326Z"></path>
    <path transform="translate(303.636,79.711)" d="M-3.988,-3.988h7.976v7.976h-7.976Z"></path>
    <path transform="translate(412.727,80.421)" d="M0,-7.528L1.69,-2.326L7.16,-2.326L2.735,0.889L4.425,6.09L0,2.875L-4.425,6.09L-2.735,0.889L-7.16,-2.326L-1.69,-2.326Z"></path>
    <path transform="translate(334.182,71.39)" d="M-3.988,-3.988h7.976v7.976h-7.976Z"></path>
    <path transform="translate(301.455,107.466)" d="M0,-7.528L1.69,-2.326L7.16,-2.326L2.735,0.889L4.425,6.09L0,2.875L-4.425,6.09L-2.735,0.889L-7.16,-2.326L-1.69,-2.326Z"></path>
    <path transform="translate(275.273,153.06)" d="M-3.988,-3.988h7.976v7.976h-7.976Z"></path>
    <path transform="translate(312.364,74.593)" d="M0,-7.528L1.69,-2.326L7.16,-2.326L2.735,0.889L4.425,6.09L0,2.875L-4.425,6.09L-2.735,0.889L-7.16,-2.326L-1.69,-2.326Z"></path>
    <path transform="translate(262.182,111.863)" d="M-3.988,-3.988h7.976v7.976h-7.976Z"></path>
    <path transform="translate(419.273,72.861)" d="M0,-7.528L1.69,-2.326L7.16,-2.326L2.735,0.889L4.425,6.09L0,2.875L-4.425,6.09L-2.735,0.889L-7.16,-2.326L-1.69,-2.326Z"></path>
    <path transform="translate(308,65.596)" d="M-3.988,-3.988h7.976v7.976h-7.976Z"></path>
    <path transform="translate(327.636,63.829)" d="M0,-7.528L1.69,-2.326L7.16,-2.326L2.735,0.889L4.425,6.09L0,2.875L-4.425,6.09L-2.735,0.889L-7.16,-2.326L-1.69,-2.326Z"></path>
    <path transform="translate(316.727,60.714)" d="M-3.988,-3.988h7.976v7.976h-7.976Z"></path>
    <path transform="translate(504.364,174.741)" d="M0,-7.528L1.69,-2.326L7.16,-2.326L2.735,0.889L4.425,6.09L0,2.875L-4.425,6.09L-2.735,0.889L-7.16,-2.326L-1.69,-2.326Z"></path>
    <path transform="translate(318.909,50.954)" d="M-3.988,-3.988h7.976v7.976h-7.976Z"></path>
    <path transform="translate(406.182,72.861)" d="M0,-7.528L1.69,-2.326L7.16,-2.326L2.735,0.889L4.425,6.09L0,2.875L-4.425,6.09L-2.735,0.889L-7.16,-2.326L-1.69,-2.326Z"></path>
    <path transform="translate(327.636,46.072)" d="M0,-7.528L1.69,-2.326L7.16,-2.326L2.735,0.889L4.425,6.09L0,2.875L-4.425,6.09L-2.735,0.889L-7.16,-2.326L-1.69,-2.326Z"></path>
    <path transform="translate(399.636,65.3)" d="M0,-7.528L1.69,-2.326L7.16,-2.326L2.735,0.889L4.425,6.09L0,2.875L-4.425,6.09L-2.735,0.889L-7.16,-2.326L-1.69,-2.326Z"></path>
    <path transform="translate(268.727,121.346)" d="M-3.988,-3.988h7.976v7.976h-7.976Z"></path>
    <path transform="translate(425.818,108.144)" d="M0,-7.528L1.69,-2.326L7.16,-2.326L2.735,0.889L4.425,6.09L0,2.875L-4.425,6.09L-2.735,0.889L-7.16,-2.326L-1.69,-2.326Z"></path>
    <path transform="translate(360.364,145.984)" d="M-3.988,-3.988h7.976v7.976h-7.976Z"></path>
    <path transform="translate(332,37.075)" d="M0,-7.528L1.69,-2.326L7.16,-2.326L2.735,0.889L4.425,6.09L0,2.875L-4.425,6.09L-2.735,0.889L-7.16,-2.326L-1.69,-2.326Z"></path>
    <path transform="translate(371.273,141.384)" d="M0,-7.528L1.69,-2.326L7.16,-2.326L2.735,0.889L4.425,6.09L0,2.875L-4.425,6.09L-2.735,0.889L-7.16,-2.326L-1.69,-2.326Z"></path>
    <path transform="translate(334.182,56.269)" d="M-3.988,-3.988h7.976v7.976h-7.976Z"></path>
    <path transform="translate(332,27.075)" d="M-3.988,-3.988h7.976v7.976h-7.976Z"></path>
    <path transform="translate(380,114.065)" d="M0,-7.528L1.69,-2.326L7.16,-2.326L2.735,0.889L4.425,6.09L0,2.875L-4.425,6.09L-2.735,0.889L-7.16,-2.326L-1.69,-2.326Z"></path>
    <path transform="translate(356,136.986)" d="M-3.988,-3.988h7.976v7.976h-7.976Z"></path>
    <path transform="translate(434.545,103.262)" d="M0,-7.528L1.69,-2.326L7.16,-2.326L2.735,0.889L4.425,6.09L0,2.875L-4.425,6.09L-2.735,0.889L-7.16,-2.326L-1.69,-2.326Z"></path>
    <path transform="translate(305.818,55.837)" d="M-3.988,-3.988h7.976v7.976h-7.976Z"></path>
    <path transform="translate(305.818,45.837)" d="M0,-7.528L1.69,-2.326L7.16,-2.326L2.735,0.889L4.425,6.09L0,2.875L-4.425,6.09L-2.735,0.889L-7.16,-2.326L-1.69,-2.326Z"></path>
    <path transform="translate(390.909,99.665)" d="M-3.988,-3.988h7.976v7.976h-7.976Z"></path>
    <path transform="translate(465.091,167.181)" d="M0,-7.528L1.69,-2.326L7.16,-2.326L2.735,0.889L4.425,6.09L0,2.875L-4.425,6.09L-2.735,0.889L-7.16,-2.326L-1.69,-2.326Z"></path>
    <path transform="translate(353.818,127.227)" d="M-3.988,-3.988h7.976v7.976h-7.976Z"></path>
    <path transform="translate(410.545,63.863)" d="M0,-7.528L1.69,-2.326L7.16,-2.326L2.735,0.889L4.425,6.09L0,2.875L-4.425,6.09L-2.735,0.889L-7.16,-2.326L-1.69,-2.326Z"></path>
    <path transform="translate(299.273,156.746)" d="M-3.988,-3.988h7.976v7.976h-7.976Z"></path>
    <path transform="translate(428,77.743)" d="M0,-7.528L1.69,-2.326L7.16,-2.326L2.735,0.889L4.425,6.09L0,2.875L-4.425,6.09L-2.735,0.889L-7.16,-2.326L-1.69,-2.326Z"></path>
    <path transform="translate(266.545,102.866)" d="M-3.988,-3.988h7.976v7.976h-7.976Z"></path>
    <path transform="translate(438.909,135.984)" d="M0,-7.528L1.69,-2.326L7.16,-2.326L2.735,0.889L4.425,6.09L0,2.875L-4.425,6.09L-2.735,0.889L-7.16,-2.326L-1.69,-2.326Z"></path>
    <path transform="translate(356,117.468)" d="M-3.988,-3.988h7.976v7.976h-7.976Z"></path>
    <path transform="translate(456.364,133.301)" d="M0,-7.528L1.69,-2.326L7.16,-2.326L2.735,0.889L4.425,6.09L0,2.875L-4.425,6.09L-2.735,0.889L-7.16,-2.326L-1.69,-2.326Z"></path>
    <path transform="translate(356,107.468)" d="M-3.988,-3.988h7.976v7.976h-7.976Z"></path>
    <path transform="translate(458.545,123.542)" d="M0,-7.528L1.69,-2.326L7.16,-2.326L2.735,0.889L4.425,6.09L0,2.875L-4.425,6.09L-2.735,0.889L-7.16,-2.326L-1.69,-2.326Z"></path>
    <path transform="translate(312.364,38.276)" d="M-3.988,-3.988h7.976v7.976h-7.976Z"></path>
    <path transform="translate(399.636,55.3)" d="M0,-7.528L1.69,-2.326L7.16,-2.326L2.735,0.889L4.425,6.09L0,2.875L-4.425,6.09L-2.735,0.889L-7.16,-2.326L-1.69,-2.326Z"></path>
    <path transform="translate(290.545,151.863)" d="M-3.988,-3.988h7.976v7.976h-7.976Z"></path>
    <path transform="translate(428,67.743)" d="M0,-7.528L1.69,-2.326L7.16,-2.326L2.735,0.889L4.425,6.09L0,2.875L-4.425,6.09L-2.735,0.889L-7.16,-2.326L-1.69,-2.326Z"></path>
    <path transform="translate(397.455,79.986)" d="M0,-7.528L1.69,-2.326L7.16,-2.326L2.735,0.889L4.425,6.09L0,2.875L-4.425,6.09L-2.735,0.889L-7.16,-2.326L-1.69,-2.326Z"></path>
    <path transform="translate(342.909,92.825)" d="M-3.988,-3.988h7.976v7.976h-7.976Z"></path>
    <path transform="translate(375.636,105.067)" d="M-3.988,-3.988h7.976v7.976h-7.976Z"></path>
    <path transform="translate(434.545,93.262)" d="M0,-7.528L1.69,-2.326L7.16,-2.326L2.735,0.889L4.425,6.09L0,2.875L-4.425,6.09L-2.735,0.889L-7.16,-2.326L-1.69,-2.326Z"></path>
    <path transform="translate(377.818,95.308)" d="M-3.988,-3.988h7.976v7.976h-7.976Z"></path>
    <path transform="translate(539.273,174.741)" d="M0,-7.528L1.69,-2.326L7.16,-2.326L2.735,0.889L4.425,6.09L0,2.875L-4.425,6.09L-2.735,0.889L-7.16,-2.326L-1.69,-2.326Z"></path>
    <path transform="translate(349.455,169.859)" d="M-3.988,-3.988h7.976v7.976h-7.976Z"></path>
    <path transform="translate(390.909,89.665)" d="M0,-7.528L1.69,-2.326L7.16,-2.326L2.735,0.889L4.425,6.09L0,2.875L-4.425,6.09L-2.735,0.889L-7.16,-2.326L-1.69,-2.326Z"></path>
    <path transform="translate(351.636,98.471)" d="M0,-7.528L1.69,-2.326L7.16,-2.326L2.735,0.889L4.425,6.09L0,2.875L-4.425,6.09L-2.735,0.889L-7.16,-2.326L-1.69,-2.326Z"></path>
    <path transform="translate(340.727,63.829)" d="M0,-7.528L1.69,-2.326L7.16,-2.326L2.735,0.889L4.425,6.09L0,2.875L-4.425,6.09L-2.735,0.889L-7.16,-2.326L-1.69,-2.326Z"></path>
    <path transform="translate(229.455,113.298)" d="M-3.988,-3.988h7.976v7.976h-7.976Z"></path>
    <path transform="translate(484.727,174.741)" d="M0,-7.528L1.69,-2.326L7.16,-2.326L2.735,0.889L4.425,6.09L0,2.875L-4.425,6.09L-2.735,0.889L-7.16,-2.326L-1.69,-2.326Z"></path>
    <path transform="translate(264.364,93.107)" d="M-3.988,-3.988h7.976v7.976h-7.976Z"></path>
    <path transform="translate(369.091,131.625)" d="M0,-7.528L1.69,-2.326L7.16,-2.326L2.735,0.889L4.425,6.09L0,2.875L-4.425,6.09L-2.735,0.889L-7.16,-2.326L-1.69,-2.326Z"></path>
    <path transform="translate(421.455,60.183)" d="M-3.988,-3.988h7.976v7.976h-7.976Z"></path>
    <path transform="translate(406.182,47.74)" d="M0,-7.528L1.69,-2.326L7.16,-2.326L2.735,0.889L4.425,6.09L0,2.875L-4.425,6.09L-2.735,0.889L-7.16,-2.326L-1.69,-2.326Z"></path>
    <path transform="translate(268.727,84.109)" d="M-3.988,-3.988h7.976v7.976h-7.976Z"></path>
    <path transform="translate(443.273,126.986)" d="M0,-7.528L1.69,-2.326L7.16,-2.326L2.735,0.889L4.425,6.09L0,2.875L-4.425,6.09L-2.735,0.889L-7.16,-2.326L-1.69,-2.326Z"></path>
    <path transform="translate(327.636,18.077)" d="M-3.988,-3.988h7.976v7.976h-7.976Z"></path>
    <path transform="translate(521.818,184.5)" d="M0,-7.528L1.69,-2.326L7.16,-2.326L2.735,0.889L4.425,6.09L0,2.875L-4.425,6.09L-2.735,0.889L-7.16,-2.326L-1.69,-2.326Z"></path>
    <path transform="translate(290.545,141.863)" d="M0,-7.528L1.69,-2.326L7.16,-2.326L2.735,0.889L4.425,6.09L0,2.875L-4.425,6.09L-2.735,0.889L-7.16,-2.326L-1.69,-2.326Z"></path>
    <path transform="translate(384.364,82.104)" d="M0,-7.528L1.69,-2.326L7.16,-2.326L2.735,0.889L4.425,6.09L0,2.875L-4.425,6.09L-2.735,0.889L-7.16,-2.326L-1.69,-2.326Z"></path>
    <path transform="translate(349.455,85.264)" d="M-3.988,-3.988h7.976v7.976h-7.976Z"></path>
    <path transform="translate(340.727,48.709)" d="M-3.988,-3.988h7.976v7.976h-7.976Z"></path>
    <path transform="translate(419.273,50.423)" d="M0,-7.528L1.69,-2.326L7.16,-2.326L2.735,0.889L4.425,6.09L0,2.875L-4.425,6.09L-2.735,0.889L-7.16,-2.326L-1.69,-2.326Z"></path>
    <path transform="translate(305.818,30.716)" d="M-3.988,-3.988h7.976v7.976h-7.976Z"></path>
    <path transform="translate(408.364,37.981)" d="M0,-7.528L1.69,-2.326L7.16,-2.326L2.735,0.889L4.425,6.09L0,2.875L-4.425,6.09L-2.735,0.889L-7.16,-2.326L-1.69,-2.326Z"></path>
  </g>
  <g aria-label="tip" fill="var(--plot-background)" stroke="currentColor" pointer-events="none" text-anchor="start" transform="translate(0.5,0.5)"></g>
</svg>