<svg class="plot" fill="currentColor" font-family="system-ui, sans-serif" font-size="10" text-anchor="middle" width="640" height="200" viewBox="0 0 640 200" xmlns="http://www.w3.org/2000/svg" xmlns:xlink="http://www.w3.org/1999/xlink">
  <style>
    :where(.plot) {
      --plot-background: white;
      display: block;
      height: auto;
      height: intrinsic;
      max-width: 100%;
    }

    :where(.plot text),
    :where(.plot tspan) {
      white-space: pre;
    }
  </style>
  <g aria-label="x-axis tick" aria-hidden="true" fill="none" stroke="currentColor" transform="translate(0.5,0)">
    <path transform="translate(70,170)" d="M0,0L0,6"></path>
    <path transform="translate(153.333,170)" d="M0,0L0,6"></path>
    <path transform="translate(236.667,170)" d="M0,0L0,6"></path>
    <path transform="translate(320,170)" d="M0,0L0,6"></path>
    <path transform="translate(403.333,170)" d="M0,0L0,6"></path>
    <path transform="translate(486.667,170)" d="M0,0L0,6"></path>
    <path transform="translate(570,170)" d="M0,0L0,6"></path>
  </g>
  <g aria-label="x-axis tick label" font-variant="tabular-nums" transform="translate(0.5,9.5)">
    <text y="0.71em" transform="translate(70,170)">3,000</text>
    <text y="0.71em" transform="translate(153.333,170)">3,500</text>
    <text y="0.71em" transform="translate(236.667,170)">4,000</text>
    <text y="0.71em" transform="translate(320,170)">4,500</text>
    <text y="0.71em" transform="translate(403.333,170)">5,000</text>
    <text y="0.71em" transform="translate(486.667,170)">5,500</text>
    <text y="0.71em" transform="translate(570,170)">6,000</text>
  </g>
  <g aria-label="x-axis label" text-anchor="end" transform="translate(17.5,27.5)">
    <text transform="translate(620,170)">body_mass_g →</text>
  </g>
  <g aria-label="dot" fill="none" stroke="currentColor" stroke-width="1.5" transform="translate(0.5,0.5)"></g>
</svg>