<svg class="plot" fill="currentColor" font-family="system-ui, sans-serif" font-size="10" text-anchor="middle" width="640" height="400" viewBox="0 0 640 400" xmlns="http://www.w3.org/2000/svg" xmlns:xlink="http://www.w3.org/1999/xlink">
  <style>
    :where(.plot) {
      --plot-background: white;
      display: block;
      height: auto;
      height: intrinsic;
      max-width: 100%;
    }

    :where(.plot text),
    :where(.plot tspan) {
      white-space: pre;
    }
  </style>
  <g aria-label="y-axis tick" aria-hidden="true" fill="none" stroke="currentColor" transform="translate(0,0.5)">
    <path transform="translate(40,370)" d="M0,0L-6,0"></path>
    <path transform="translate(40,335)" d="M0,0L-6,0"></path>
    <path transform="translate(40,300)" d="M0,0L-6,0"></path>
    <path transform="translate(40,265)" d="M0,0L-6,0"></path>
    <path transform="translate(40,230)" d="M0,0L-6,0"></path>
    <path transform="translate(40,195)" d="M0,0L-6,0"></path>
    <path transform="translate(40,160)" d="M0,0L-6,0"></path>
    <path transform="translate(40,125)" d="M0,0L-6,0"></path>
    <path transform="translate(40,90)" d="M0,0L-6,0"></path>
    <path transform="translate(40,55)" d="M0,0L-6,0"></path>
    <path transform="translate(40,20)" d="M0,0L-6,0"></path>
  </g>
  <g aria-label="y-axis tick label" text-anchor="end" font-variant="tabular-nums" transform="translate(-8.5,0.5)">
    <text y="0.32em" transform="translate(40,370)">1.0</text>
    <text y="0.32em" transform="translate(40,335)">1.2</text>
    <text y="0.32em" transform="translate(40,300)">1.4</text>
    <text y="0.32em" transform="translate(40,265)">1.6</text>
    <text y="0.32em" transform="translate(40,230)">1.8</text>
    <text y="0.32em" transform="translate(40,195)">2.0</text>
    <text y="0.32em" transform="translate(40,160)">2.2</text>
    <text y="0.32em" transform="translate(40,125)">2.4</text>
    <text y="0.32em" transform="translate(40,90)">2.6</text>
    <text y="0.32em" transform="translate(40,55)">2.8</text>
    <text y="0.32em" transform="translate(40,20)">3.0</text>
  </g>
  <g aria-label="y-axis label" text-anchor="start" transform="translate(-36.5,-16.5)">
    <text y="0.71em" transform="translate(40,20)">↑ y</text>
  </g>
  <g aria-label="x-axis tick" aria-hidden="true" fill="none" stroke="currentColor" transform="translate(0.5,0)">
    <path transform="translate(40,370)" d="M0,0L0,6"></path>
    <path transform="translate(98,370)" d="M0,0L0,6"></path>
    <path transform="translate(156,370)" d="M0,0L0,6"></path>
    <path transform="translate(214,370)" d="M0,0L0,6"></path>
    <path transform="translate(272,370)" d="M0,0L0,6"></path>
    <path transform="translate(330,370)" d="M0,0L0,6"></path>
    <path transform="translate(388,370)" d="M0,0L0,6"></path>
    <path transform="translate(446,370)" d="M0,0L0,6"></path>
    <path transform="translate(504,370)" d="M0,0L0,6"></path>
    <path transform="translate(562,370)" d="M0,0L0,6"></path>
    <path transform="translate(620,370)" d="M0,0L0,6"></path>
  </g>
  <g aria-label="x-axis tick label" font-variant="tabular-nums" transform="translate(0.5,9.5)">
    <text y="0.71em" transform="translate(40,370)">4000</text>
    <text y="0.71em" transform="translate(98,370)">4200</text>
    <text y="0.71em" transform="translate(156,370)">4400</text>
    <text y="0.71em" transform="translate(214,370)">4600</text>
    <text y="0.71em" transform="translate(272,370)">4800</text>
    <text y="0.71em" transform="translate(330,370)">5000</text>
    <text y="0.71em" transform="translate(388,370)">5200</text>
    <text y="0.71em" transform="translate(446,370)">5400</text>
    <text y="0.71em" transform="translate(504,370)">5600</text>
    <text y="0.71em" transform="translate(562,370)">5800</text>
    <text y="0.71em" transform="translate(620,370)">6000</text>
  </g>
  <g aria-label="x-axis label" text-anchor="end" transform="translate(17.5,27.5)">
    <text transform="translate(620,370)">x →</text>
  </g>
  <g aria-label="dot" fill="none" stroke="currentColor" stroke-width="1.5" transform="translate(0.5,0.5)">
    <circle cx="40" cy="370" r="3"></circle>
    <circle cx="330" cy="195" r="3"></circle>
    <circle cx="620" cy="20" r="3"></circle>
  </g>
  <g aria-label="tip" fill="var(--plot-background)" stroke="currentColor" pointer-events="none" text-anchor="start" transform="translate(0.5,0.5)"></g>
</svg>