<svg width="493" height="222" viewBox="0 0 493 222" fill="none" xmlns="http://www.w3.org/2000/svg">
<rect width="493" height="222" fill="white"/>
<g style="mix-blend-mode:multiply" opacity="0.5">
<rect x="143.872" y="17" width="55.296" height="144" fill="#7EDF87"/>
</g>
<g style="mix-blend-mode:multiply" opacity="0.5">
<rect x="16" y="17" width="55.296" height="144" fill="#FFB6F8"/>
</g>
<g style="mix-blend-mode:multiply" opacity="0.5">
<rect x="399.616" y="75.7521" width="55.296" height="85.248" fill="#A9B6FC"/>
</g>
<g style="mix-blend-mode:multiply" opacity="0.5">
<rect x="382.336" y="17" width="89.856" height="55.296" fill="#D8A6FF"/>
</g>
<g style="mix-blend-mode:multiply" opacity="0.5">
<rect x="202.624" y="105.704" width="16.128" height="55.296" fill="#FFD850"/>
</g>
<g style="mix-blend-mode:multiply" opacity="0.5">
<circle cx="297.664" cy="89" r="72" fill="#B6E5FF"/>
</g>
<g style="mix-blend-mode:multiply" opacity="0.5">
<path d="M297.664 17C281.006 17 264.864 22.7758 251.988 33.3432C239.111 43.9107 230.297 58.616 227.047 74.9535C223.798 91.291 226.313 108.25 234.165 122.941C242.018 137.631 254.721 149.145 270.111 155.519C285.5 161.894 302.624 162.735 318.564 157.9C334.505 153.064 348.275 142.851 357.53 129.001C366.784 115.151 370.95 98.5201 369.317 81.9428C367.684 65.3654 360.354 49.867 348.576 38.0883L297.664 89V17Z" fill="#B6E5FF"/>
</g>
<g style="mix-blend-mode:multiply" opacity="0.5">
<path d="M297.664 17C286.731 17 275.942 19.4897 266.114 24.2804C256.287 29.071 247.68 36.0367 240.945 44.6491C234.211 53.2616 229.526 63.2945 227.246 73.9871C224.967 84.6796 225.152 95.7509 227.788 106.361C230.424 116.971 235.442 126.842 242.461 135.224C249.48 143.606 258.316 150.28 268.298 154.739C278.28 159.198 289.147 161.326 300.073 160.96C311 160.594 321.7 157.744 331.362 152.628L297.664 89V17Z" fill="#B6E5FF"/>
</g>
<g style="mix-blend-mode:multiply" opacity="0.5">
<path d="M71.296 127.592C85.9614 127.592 100.026 121.766 110.396 111.396C120.766 101.026 126.592 86.9614 126.592 72.296C126.592 57.6306 120.766 43.5658 110.396 33.1958C100.026 22.8258 85.9614 17 71.296 17L71.296 72.296L71.296 127.592Z" fill="#E975C8"/>
</g>
<g style="mix-blend-mode:multiply" opacity="0.5">
<path d="M16 72.296C16 83.6982 19.5248 94.8216 26.0917 104.143C32.6586 113.464 41.9464 120.527 52.6832 124.365C63.4201 128.203 75.0808 128.628 86.0686 125.582C97.0563 122.536 106.834 116.168 114.062 107.349L71.296 72.296L16 72.296Z" fill="#E975C8"/>
</g>
<path d="M300.972 202.785C299.495 202.785 298.076 202.539 296.717 202.047C295.357 201.554 294.138 200.804 293.06 199.796C292.005 198.788 291.172 197.522 290.563 195.998C289.953 194.475 289.649 192.681 289.649 190.618C289.649 188.555 289.953 186.762 290.563 185.238C291.196 183.714 292.04 182.448 293.095 181.44C294.15 180.432 295.357 179.682 296.717 179.19C298.076 178.697 299.495 178.451 300.972 178.451C302.449 178.451 303.867 178.697 305.227 179.19C306.586 179.682 307.794 180.432 308.848 181.44C309.903 182.448 310.736 183.714 311.345 185.238C311.978 186.762 312.295 188.555 312.295 190.618C312.295 192.681 311.99 194.475 311.38 195.998C310.771 197.522 309.927 198.788 308.848 199.796C307.794 200.804 306.586 201.554 305.227 202.047C303.867 202.539 302.449 202.785 300.972 202.785ZM300.972 200.64C301.98 200.64 302.777 200.23 303.363 199.409C303.972 198.565 304.406 197.393 304.664 195.893C304.945 194.393 305.086 192.634 305.086 190.618C305.086 188.602 304.945 186.844 304.664 185.344C304.406 183.843 303.972 182.671 303.363 181.827C302.777 180.983 301.98 180.561 300.972 180.561C299.987 180.561 299.19 180.983 298.58 181.827C297.971 182.671 297.526 183.843 297.244 185.344C296.986 186.844 296.857 188.602 296.857 190.618C296.857 192.634 296.986 194.393 297.244 195.893C297.526 197.393 297.971 198.565 298.58 199.409C299.19 200.23 299.987 200.64 300.972 200.64Z" fill="#1C1C1C"/>
<path d="M313.927 202.117V200.324L315.51 199.972C315.533 199.128 315.545 198.225 315.545 197.264C315.545 196.303 315.545 195.459 315.545 194.732V180.139L313.646 179.893V178.311L321.663 176.728L322.261 177.115L322.121 182.003V186.434C323.504 185.074 325.168 184.394 327.114 184.394C328.403 184.394 329.575 184.734 330.63 185.414C331.685 186.07 332.518 187.067 333.127 188.403C333.76 189.716 334.077 191.38 334.077 193.396C334.077 195.319 333.713 196.971 332.986 198.354C332.26 199.738 331.31 200.804 330.138 201.554C328.989 202.281 327.759 202.644 326.446 202.644C325.438 202.644 324.559 202.469 323.808 202.117C323.058 201.789 322.402 201.308 321.839 200.675L321.136 202.644L313.927 202.117ZM323.879 187.875C323.574 187.875 323.281 187.922 323 188.016C322.742 188.11 322.484 188.239 322.226 188.403V198.776C322.695 199.105 323.246 199.269 323.879 199.269C324.817 199.269 325.567 198.788 326.129 197.827C326.692 196.866 326.973 195.389 326.973 193.396C326.973 191.38 326.692 189.962 326.129 189.141C325.567 188.297 324.817 187.875 323.879 187.875Z" fill="#1C1C1C"/>
<path d="M342.096 202.644C339.658 202.644 337.501 202.07 335.625 200.921L335.801 196.42H339.001L339.564 200.077C339.962 200.242 340.373 200.37 340.795 200.464C341.217 200.535 341.65 200.57 342.096 200.57C342.986 200.57 343.678 200.429 344.17 200.148C344.663 199.866 344.909 199.398 344.909 198.741C344.909 198.272 344.721 197.85 344.346 197.475C343.995 197.1 343.233 196.76 342.06 196.456L340.056 195.928C338.673 195.553 337.618 194.897 336.891 193.959C336.165 192.998 335.801 191.837 335.801 190.478C335.801 188.719 336.469 187.266 337.806 186.117C339.165 184.968 341.111 184.394 343.643 184.394C344.721 184.394 345.718 184.511 346.632 184.746C347.57 184.98 348.519 185.332 349.48 185.801L349.199 189.774H345.964L345.19 186.645C344.956 186.598 344.698 186.563 344.416 186.539C344.159 186.492 343.842 186.469 343.467 186.469C342.811 186.469 342.248 186.621 341.779 186.926C341.334 187.207 341.111 187.653 341.111 188.262C341.111 188.637 341.275 189.001 341.603 189.352C341.932 189.704 342.705 190.044 343.924 190.372L345.893 190.9C347.534 191.345 348.707 192.037 349.41 192.974C350.137 193.912 350.5 195.072 350.5 196.456C350.5 198.518 349.738 200.066 348.214 201.097C346.714 202.129 344.674 202.644 342.096 202.644Z" fill="#1C1C1C"/>
<path d="M360.94 186.293C360.401 186.293 359.944 186.692 359.569 187.489C359.193 188.286 358.982 189.774 358.936 191.954H360.588C361.432 191.954 361.995 191.79 362.276 191.462C362.581 191.111 362.733 190.489 362.733 189.598C362.733 188.379 362.546 187.524 362.171 187.031C361.819 186.539 361.409 186.293 360.94 186.293ZM361.045 202.644C359.287 202.644 357.717 202.281 356.333 201.554C354.974 200.828 353.895 199.784 353.098 198.425C352.301 197.042 351.903 195.389 351.903 193.467C351.903 191.943 352.172 190.618 352.711 189.493C353.251 188.368 353.977 187.43 354.892 186.68C355.806 185.906 356.826 185.332 357.951 184.957C359.076 184.582 360.213 184.394 361.362 184.394C363.05 184.394 364.445 184.746 365.546 185.449C366.672 186.129 367.516 187.055 368.078 188.227C368.641 189.376 368.922 190.665 368.922 192.095C368.922 192.47 368.911 192.798 368.887 193.08C368.864 193.338 368.817 193.631 368.746 193.959H358.971C359.158 195.67 359.662 196.913 360.483 197.686C361.327 198.46 362.264 198.847 363.296 198.847C364.187 198.847 364.949 198.694 365.582 198.39C366.238 198.061 366.812 197.663 367.305 197.194L368.676 198.53C367.926 199.96 366.894 201.003 365.582 201.66C364.292 202.316 362.78 202.644 361.045 202.644Z" fill="#1C1C1C"/>
<path d="M370.377 202.082V200.288L372.065 199.902C372.088 199.058 372.1 198.167 372.1 197.229C372.1 196.268 372.1 195.424 372.1 194.697V192.482C372.1 191.826 372.088 191.298 372.065 190.9C372.065 190.501 372.053 190.138 372.03 189.809C372.03 189.458 372.018 189.048 371.994 188.579L370.096 188.262V186.82L377.867 184.394L378.5 184.781L378.781 188.86C379.25 187.336 379.918 186.211 380.786 185.484C381.676 184.757 382.544 184.394 383.388 184.394C384.255 184.394 384.982 184.652 385.568 185.168C386.177 185.66 386.541 186.445 386.658 187.524C386.611 188.461 386.33 189.2 385.814 189.739C385.298 190.255 384.689 190.513 383.986 190.513C382.907 190.513 381.923 189.868 381.032 188.579L380.856 188.333C380.434 188.801 380.012 189.411 379.59 190.161C379.191 190.911 378.922 191.685 378.781 192.482V194.697C378.781 195.377 378.781 196.174 378.781 197.088C378.781 198.003 378.793 198.87 378.816 199.691L381.559 200.288V202.082H370.377Z" fill="#1C1C1C"/>
<path d="M399.385 186.609V184.957H405.996V186.609L403.886 186.961L398.084 202.082H394.919L388.66 186.961L386.972 186.609V184.957H397.557V186.609L395.693 187.031L398.612 195.119L401.319 186.996L399.385 186.609Z" fill="#1C1C1C"/>
<path d="M419.67 202.644C418.568 202.644 417.677 202.433 416.998 202.011C416.341 201.566 415.861 200.945 415.556 200.148C414.876 200.898 414.184 201.507 413.481 201.976C412.801 202.422 411.828 202.644 410.562 202.644C409.179 202.644 408.066 202.246 407.222 201.449C406.401 200.652 405.991 199.538 405.991 198.108C405.991 197.194 406.19 196.385 406.589 195.682C407.011 194.955 407.738 194.299 408.769 193.713C409.824 193.103 411.301 192.552 413.2 192.06C413.481 191.99 413.809 191.908 414.184 191.814C414.56 191.697 414.946 191.591 415.345 191.497V190.231C415.345 188.731 415.169 187.7 414.817 187.137C414.489 186.574 413.774 186.293 412.672 186.293C412.579 186.293 412.485 186.293 412.391 186.293C412.321 186.293 412.239 186.293 412.145 186.293V187.489C412.145 188.919 411.852 189.938 411.266 190.548C410.68 191.134 410.012 191.427 409.261 191.427C407.831 191.427 406.941 190.794 406.589 189.528C406.589 188.004 407.304 186.774 408.734 185.836C410.187 184.875 412.332 184.394 415.169 184.394C417.607 184.394 419.318 184.933 420.303 186.012C421.311 187.067 421.815 188.801 421.815 191.216V199.269C421.815 199.667 422.014 199.866 422.413 199.866C422.554 199.866 422.694 199.82 422.835 199.726C422.976 199.609 423.151 199.398 423.362 199.093L424.382 199.655C423.96 200.734 423.374 201.507 422.624 201.976C421.897 202.422 420.913 202.644 419.67 202.644ZM412.039 197.018C412.039 197.886 412.215 198.53 412.567 198.952C412.919 199.374 413.352 199.585 413.868 199.585C414.032 199.585 414.208 199.55 414.395 199.48C414.606 199.386 414.923 199.198 415.345 198.917V193.15C414.993 193.244 414.653 193.373 414.325 193.537C413.833 193.771 413.329 194.17 412.813 194.732C412.297 195.295 412.039 196.057 412.039 197.018Z" fill="#1C1C1C"/>
<path d="M425.087 202.117V200.324L426.669 199.972C426.693 199.128 426.704 198.225 426.704 197.264C426.704 196.303 426.704 195.459 426.704 194.732V180.139L424.805 179.893V178.311L432.823 176.728L433.421 177.115L433.28 182.003V186.434C434.663 185.074 436.328 184.394 438.273 184.394C439.563 184.394 440.735 184.734 441.79 185.414C442.845 186.07 443.677 187.067 444.287 188.403C444.92 189.716 445.236 191.38 445.236 193.396C445.236 195.319 444.873 196.971 444.146 198.354C443.419 199.738 442.47 200.804 441.298 201.554C440.149 202.281 438.918 202.644 437.605 202.644C436.597 202.644 435.718 202.469 434.968 202.117C434.218 201.789 433.561 201.308 432.999 200.675L432.296 202.644L425.087 202.117ZM435.038 187.875C434.734 187.875 434.441 187.922 434.159 188.016C433.901 188.11 433.643 188.239 433.386 188.403V198.776C433.854 199.105 434.405 199.269 435.038 199.269C435.976 199.269 436.726 198.788 437.289 197.827C437.851 196.866 438.133 195.389 438.133 193.396C438.133 191.38 437.851 189.962 437.289 189.141C436.726 188.297 435.976 187.875 435.038 187.875Z" fill="#1C1C1C"/>
<path d="M446.961 202.082V200.288L448.543 199.937C448.567 199.046 448.578 198.167 448.578 197.299C448.602 196.432 448.613 195.565 448.613 194.697V180.245L446.715 179.893V178.311L454.838 176.728L455.435 177.115L455.295 182.003V194.697C455.295 195.565 455.295 196.444 455.295 197.335C455.318 198.202 455.342 199.081 455.365 199.972L456.947 200.288V202.082H446.961Z" fill="#1C1C1C"/>
<path d="M467.567 186.293C467.027 186.293 466.57 186.692 466.195 187.489C465.82 188.286 465.609 189.774 465.562 191.954H467.215C468.059 191.954 468.621 191.79 468.903 191.462C469.208 191.111 469.36 190.489 469.36 189.598C469.36 188.379 469.172 187.524 468.797 187.031C468.446 186.539 468.035 186.293 467.567 186.293ZM467.672 202.644C465.914 202.644 464.343 202.281 462.96 201.554C461.6 200.828 460.522 199.784 459.725 198.425C458.928 197.042 458.529 195.389 458.529 193.467C458.529 191.943 458.799 190.618 459.338 189.493C459.877 188.368 460.604 187.43 461.518 186.68C462.433 185.906 463.452 185.332 464.578 184.957C465.703 184.582 466.84 184.394 467.989 184.394C469.676 184.394 471.071 184.746 472.173 185.449C473.298 186.129 474.142 187.055 474.705 188.227C475.268 189.376 475.549 190.665 475.549 192.095C475.549 192.47 475.537 192.798 475.514 193.08C475.49 193.338 475.443 193.631 475.373 193.959H465.597C465.785 195.67 466.289 196.913 467.109 197.686C467.953 198.46 468.891 198.847 469.923 198.847C470.813 198.847 471.575 198.694 472.208 198.39C472.865 198.061 473.439 197.663 473.931 197.194L475.303 198.53C474.553 199.96 473.521 201.003 472.208 201.66C470.919 202.316 469.407 202.644 467.672 202.644Z" fill="#1C1C1C"/>
<path d="M261.805 201.611C260.398 201.611 259.179 201.306 258.148 200.697C257.12 200.089 256.299 199.229 255.777 198.214C255.222 197.158 254.816 196.041 254.568 194.89C254.305 193.642 254.177 192.373 254.186 191.102C254.186 190.095 254.252 189.133 254.385 188.213C254.517 187.294 254.762 186.36 255.119 185.412C255.476 184.464 255.936 183.642 256.496 182.945C257.079 182.23 257.833 181.649 258.699 181.246C259.608 180.81 260.642 180.593 261.805 180.593C263.212 180.593 264.431 180.898 265.462 181.507C266.489 182.114 267.311 182.974 267.833 183.99C268.384 185.035 268.786 186.143 269.042 187.314C269.296 188.484 269.424 189.747 269.424 191.102C269.424 192.108 269.358 193.071 269.225 193.991C269.082 194.946 268.831 195.885 268.475 196.792C268.107 197.74 267.65 198.562 267.099 199.259C266.548 199.956 265.819 200.523 264.911 200.958C264.003 201.394 262.968 201.611 261.805 201.611ZM264.494 193.884C265.223 193.157 265.628 192.15 265.614 191.102C265.614 190.019 265.25 189.092 264.522 188.32C263.794 187.547 262.888 187.161 261.805 187.161C260.722 187.161 259.816 187.547 259.088 188.32C258.374 189.055 257.98 190.06 257.995 191.102C257.995 192.184 258.36 193.112 259.088 193.884C259.816 194.657 260.722 195.043 261.805 195.043C262.888 195.043 263.785 194.657 264.494 193.884ZM261.805 206.865C270.22 206.865 277.043 199.807 277.043 191.102C277.043 182.397 270.22 175.339 261.805 175.339C253.39 175.339 246.567 182.397 246.567 191.102C246.567 199.807 253.39 206.865 261.805 206.865Z" fill="#1C1C1C"/>
</svg>
